<svg width="97" height="28" viewBox="0 0 97 28" fill="none" xmlns="http://www.w3.org/2000/svg">
<path d="M14.948 26.064C13.532 26.808 11.804 27.18 9.764 27.18C7.004 27.18 4.772 26.34 3.068 24.66C1.388 22.956 0.548 20.712 0.548 17.928C0.548 15.024 1.304 12.732 2.816 11.052C4.328 9.372 6.272 8.532 8.648 8.532C10.928 8.532 12.74 9.264 14.084 10.728C15.428 12.192 16.1 14.268 16.1 16.956C16.1 17.724 16.04 18.432 15.92 19.08H3.464C3.68 20.88 4.364 22.26 5.516 23.22C6.668 24.18 8.18 24.66 10.052 24.66C12.092 24.66 13.724 24.24 14.948 23.4V26.064ZM8.648 11.016C7.28 11.016 6.116 11.508 5.156 12.492C4.196 13.476 3.632 14.88 3.464 16.704H13.256V15.984C13.256 14.472 12.848 13.272 12.032 12.384C11.216 11.472 10.088 11.016 8.648 11.016ZM28.0326 18.756H24.8646V27H20.3286V2.736H27.9246C30.6606 2.736 32.8446 3.48 34.4766 4.968C36.1326 6.456 36.9606 8.364 36.9606 10.692C36.9606 13.164 36.1086 15.132 34.4046 16.596C32.7246 18.036 30.6006 18.756 28.0326 18.756ZM27.5286 6.444H24.8646V15.084H27.4206C29.0766 15.084 30.3126 14.688 31.1286 13.896C31.9446 13.104 32.3526 12.036 32.3526 10.692C32.3526 9.372 31.9446 8.34 31.1286 7.596C30.3126 6.828 29.1126 6.444 27.5286 6.444ZM56.7845 17.82C56.7845 20.58 56.0045 22.848 54.4445 24.624C52.9085 26.4 50.7485 27.288 47.9645 27.288C45.2045 27.288 43.0445 26.424 41.4845 24.696C39.9485 22.968 39.1805 20.76 39.1805 18.072C39.1805 15.288 39.9845 12.996 41.5925 11.196C43.2005 9.372 45.3245 8.46 47.9645 8.46C50.7725 8.46 52.9445 9.348 54.4805 11.124C56.0165 12.876 56.7845 15.108 56.7845 17.82ZM43.7165 17.928C43.7165 19.608 44.0885 21.012 44.8325 22.14C45.5765 23.268 46.6325 23.832 48.0005 23.832C49.4165 23.832 50.4845 23.28 51.2045 22.176C51.9245 21.072 52.2845 19.668 52.2845 17.964C52.2845 16.212 51.9365 14.784 51.2405 13.68C50.5445 12.552 49.4525 11.988 47.9645 11.988C46.5965 11.988 45.5405 12.552 44.7965 13.68C44.0765 14.808 43.7165 16.224 43.7165 17.928ZM73.72 26.208C72.448 26.952 70.864 27.324 68.968 27.324C66.16 27.324 63.88 26.436 62.128 24.66C60.4 22.884 59.536 20.64 59.536 17.928C59.56 15.264 60.424 13.02 62.128 11.196C63.856 9.372 66.208 8.46 69.184 8.46C70.96 8.46 72.472 8.796 73.72 9.468V13.284C72.52 12.516 71.152 12.132 69.616 12.132C67.936 12.132 66.58 12.66 65.548 13.716C64.516 14.772 63.988 16.176 63.964 17.928C64.012 19.656 64.528 21.048 65.512 22.104C66.52 23.16 67.876 23.688 69.58 23.688C71.068 23.688 72.448 23.28 73.72 22.464V26.208ZM81.9181 27H77.5981V8.748H81.9181V27ZM82.3501 3.276C82.3501 4.02 82.0981 4.644 81.5941 5.148C81.0901 5.652 80.4781 5.904 79.7581 5.904C79.0381 5.904 78.4261 5.652 77.9221 5.148C77.4181 4.644 77.1661 4.02 77.1661 3.276C77.1661 2.556 77.4181 1.944 77.9221 1.44C78.4261 0.935999 79.0381 0.684 79.7581 0.684C80.4781 0.684 81.0901 0.935999 81.5941 1.44C82.0981 1.944 82.3501 2.556 82.3501 3.276ZM96.8497 26.568C96.0097 26.976 94.9297 27.18 93.6097 27.18C89.6737 27.18 87.7057 25.188 87.7057 21.204V11.988H84.9697V8.748H87.7057V4.356H92.0257V8.748H96.5617V11.988H92.0257V21.276C92.0257 22.044 92.2297 22.632 92.6377 23.04C93.0457 23.424 93.6097 23.616 94.3297 23.616C95.2417 23.616 96.0817 23.364 96.8497 22.86V26.568Z" fill="white"/>
</svg>
