<svg width="96" height="27" viewBox="0 0 96 27" fill="none" xmlns="http://www.w3.org/2000/svg">
<path d="M14.948 25.064C13.532 25.808 11.804 26.18 9.764 26.18C7.004 26.18 4.772 25.34 3.068 23.66C1.388 21.956 0.548 19.712 0.548 16.928C0.548 14.024 1.304 11.732 2.816 10.052C4.328 8.372 6.272 7.532 8.648 7.532C10.928 7.532 12.74 8.264 14.084 9.728C15.428 11.192 16.1 13.268 16.1 15.956C16.1 16.724 16.04 17.432 15.92 18.08H3.464C3.68 19.88 4.364 21.26 5.516 22.22C6.668 23.18 8.18 23.66 10.052 23.66C12.092 23.66 13.724 23.24 14.948 22.4V25.064ZM8.648 10.016C7.28 10.016 6.116 10.508 5.156 11.492C4.196 12.476 3.632 13.88 3.464 15.704H13.256V14.984C13.256 13.472 12.848 12.272 12.032 11.384C11.216 10.472 10.088 10.016 8.648 10.016ZM28.0326 17.756H24.8646V26H20.3286V1.736H27.9246C30.6606 1.736 32.8446 2.48 34.4766 3.968C36.1326 5.456 36.9606 7.364 36.9606 9.692C36.9606 12.164 36.1086 14.132 34.4046 15.596C32.7246 17.036 30.6006 17.756 28.0326 17.756ZM27.5286 5.444H24.8646V14.084H27.4206C29.0766 14.084 30.3126 13.688 31.1286 12.896C31.9446 12.104 32.3526 11.036 32.3526 9.692C32.3526 8.372 31.9446 7.34 31.1286 6.596C30.3126 5.828 29.1126 5.444 27.5286 5.444ZM56.7845 16.82C56.7845 19.58 56.0045 21.848 54.4445 23.624C52.9085 25.4 50.7485 26.288 47.9645 26.288C45.2045 26.288 43.0445 25.424 41.4845 23.696C39.9485 21.968 39.1805 19.76 39.1805 17.072C39.1805 14.288 39.9845 11.996 41.5925 10.196C43.2005 8.372 45.3245 7.46 47.9645 7.46C50.7725 7.46 52.9445 8.348 54.4805 10.124C56.0165 11.876 56.7845 14.108 56.7845 16.82ZM43.7165 16.928C43.7165 18.608 44.0885 20.012 44.8325 21.14C45.5765 22.268 46.6325 22.832 48.0005 22.832C49.4165 22.832 50.4845 22.28 51.2045 21.176C51.9245 20.072 52.2845 18.668 52.2845 16.964C52.2845 15.212 51.9365 13.784 51.2405 12.68C50.5445 11.552 49.4525 10.988 47.9645 10.988C46.5965 10.988 45.5405 11.552 44.7965 12.68C44.0765 13.808 43.7165 15.224 43.7165 16.928ZM73.72 25.208C72.448 25.952 70.864 26.324 68.968 26.324C66.16 26.324 63.88 25.436 62.128 23.66C60.4 21.884 59.536 19.64 59.536 16.928C59.56 14.264 60.424 12.02 62.128 10.196C63.856 8.372 66.208 7.46 69.184 7.46C70.96 7.46 72.472 7.796 73.72 8.468V12.284C72.52 11.516 71.152 11.132 69.616 11.132C67.936 11.132 66.58 11.66 65.548 12.716C64.516 13.772 63.988 15.176 63.964 16.928C64.012 18.656 64.528 20.048 65.512 21.104C66.52 22.16 67.876 22.688 69.58 22.688C71.068 22.688 72.448 22.28 73.72 21.464V25.208ZM80.6941 26H77.8501V7.748H80.6941V26ZM80.5861 0.692C80.9461 1.052 81.1261 1.496 81.1261 2.024C81.1261 2.552 80.9461 2.996 80.5861 3.356C80.2261 3.692 79.7821 3.86 79.2541 3.86C78.7261 3.86 78.2821 3.692 77.9221 3.356C77.5861 2.996 77.4181 2.552 77.4181 2.024C77.4181 1.496 77.5861 1.052 77.9221 0.692C78.2821 0.331999 78.7261 0.151998 79.2541 0.151998C79.7821 0.151998 80.2261 0.331999 80.5861 0.692ZM95.2525 25.532C94.4605 25.964 93.5725 26.18 92.5885 26.18C88.9885 26.18 87.1885 24.344 87.1885 20.672V10.052H84.2725V7.748H87.1885V3.212H90.0325V7.748H95.0725V10.052H90.0325V20.744C90.0325 22.688 90.9445 23.66 92.7685 23.66C93.7045 23.66 94.5325 23.384 95.2525 22.832V25.532Z" fill="white"/>
</svg>
